<?xml version="1.0" encoding="UTF-8"?>
<!DOCTYPE svg PUBLIC "-//W3C//DTD SVG 1.1//EN" "http://www.w3.org/Graphics/SVG/1.1/DTD/svg11.dtd">
<!-- Creator: CorelDRAW X7 -->
<svg xmlns="http://www.w3.org/2000/svg" xml:space="preserve" width="650px" height="480px" version="1.1" style="shape-rendering:geometricPrecision; text-rendering:geometricPrecision; image-rendering:optimizeQuality; fill-rule:evenodd; clip-rule:evenodd"
viewBox="0 0 650 480"
 xmlns:xlink="http://www.w3.org/1999/xlink">
 <defs>
  <style type="text/css">
   <![CDATA[
    .fil0 {fill:#FEFEFE;fill-rule:nonzero}
   ]]>
  </style>
 </defs>
 <g id="Warstwa_x0020_1">
  <metadata id="CorelCorpID_0Corel-Layer"/>
  <path class="fil0" d="M215 328c-1,2 -3,3 -6,3 -3,0 -7,0 -10,-1 -4,-1 -7,-3 -11,-5 -4,-2 -7,-4 -9,-7 -3,-3 -4,-5 -5,-8 0,-3 1,-6 3,-8 7,-7 14,-14 23,-19 8,-5 17,-10 25,-14 9,-3 17,-6 25,-9 8,-2 14,-4 20,-4 5,-2 11,-2 17,-2 7,-1 13,0 20,1 6,0 13,2 19,4 6,3 11,6 16,10 5,4 9,9 12,14 3,6 5,13 5,22 0,11 -3,22 -9,34 -6,11 -13,22 -23,32 -10,10 -21,19 -34,26 -13,8 -27,13 -42,16l-17 53c0,2 -3,2 -6,2 -4,0 -8,-1 -12,-2 -4,-2 -8,-3 -11,-6 -3,-2 -5,-4 -4,-6 1,-8 3,-17 6,-29 3,-12 7,-25 10,-39 4,-13 8,-27 12,-41 4,-14 8,-27 11,-38 0,-1 1,-2 4,-3 2,-1 5,-2 9,-3 4,0 8,-1 12,-1 4,-1 8,-1 11,-1 4,1 6,1 9,2 2,0 3,1 3,2 -5,13 -10,27 -15,41 -4,15 -9,29 -14,44 7,-4 15,-8 22,-13 7,-6 13,-12 18,-18 6,-7 10,-15 13,-23 3,-8 5,-18 4,-28 0,-9 -3,-16 -7,-21 -5,-6 -13,-9 -23,-8 -6,0 -12,2 -19,4 -6,3 -13,7 -19,11 -6,5 -12,10 -18,16 -6,6 -11,13 -15,20zm141 69c-1,2 -2,4 -4,5 -2,0 -4,0 -6,-1 -2,0 -3,-2 -4,-3 -1,-2 -1,-4 0,-7 6,-11 10,-22 13,-31 3,-9 6,-18 8,-26 -1,-3 -2,-7 -2,-11 0,-3 1,-7 2,-10 3,-4 6,-8 9,-11 4,-3 7,-5 10,-6 3,-1 5,0 7,2 2,2 2,6 0,12 0,0 0,0 0,0l0 0c-2,4 -2,8 0,11 1,3 3,5 6,7 3,2 7,3 11,5 4,1 7,3 10,4 3,2 5,5 6,8 2,2 1,6 -1,11 -1,4 -3,9 -4,14 -1,5 -3,11 -3,15 -1,5 -1,9 -1,13 0,3 1,5 3,4 2,0 5,-3 8,-7 4,-5 9,-13 15,-24 1,-3 3,-4 5,-5 2,-1 4,-1 6,-1 2,1 3,2 4,5 0,2 -1,5 -3,10 -3,7 -6,13 -9,19 -3,5 -5,10 -8,14 -2,4 -5,7 -7,10 -3,2 -5,4 -8,6 -3,2 -6,3 -9,4 -4,1 -8,2 -11,1 -4,0 -8,-1 -11,-3 -3,-2 -5,-4 -7,-8 -2,-5 -3,-10 -3,-16 1,-5 2,-11 3,-17 2,-5 3,-11 5,-16 2,-6 3,-10 4,-14 0,-1 -1,-3 -2,-4 -1,-1 -2,-2 -3,-3 -1,0 -3,-1 -4,-2 -2,0 -3,-1 -4,-1 -3,8 -6,16 -10,24 -3,7 -7,15 -11,23zm153 -31c-3,6 -6,12 -8,18 -3,6 -6,12 -10,18 -4,5 -8,10 -13,14 -5,5 -11,7 -18,9 -9,1 -15,0 -19,-5 -4,-4 -6,-10 -6,-17 -1,-8 0,-16 3,-25 2,-10 4,-19 7,-28 3,-9 6,-18 8,-25 3,-8 5,-14 5,-18 1,-2 3,-3 7,-3 4,1 8,2 13,3 4,2 7,4 10,7 3,3 4,5 2,7 -3,6 -5,13 -8,21 -2,8 -4,16 -6,23 -1,5 -2,10 -3,14 -1,5 -1,8 0,10 0,2 1,3 3,1 2,-1 5,-5 10,-13 1,-2 3,-5 4,-7 1,-3 3,-6 5,-10 2,-2 4,-4 6,-5 2,-1 3,-1 5,0 2,1 3,2 3,4 1,2 1,5 0,7zm-46 -78c-1,-4 0,-8 4,-11 3,-3 7,-5 12,-6 5,-1 10,-1 14,1 4,2 7,5 7,9 1,4 0,8 -3,11 -3,3 -8,6 -13,6 -5,1 -10,1 -14,-1 -4,-2 -6,-5 -7,-9zm49 129c-5,1 -9,0 -12,-1 -3,-2 -5,-4 -6,-6 -1,-3 -2,-5 -1,-8 1,-2 4,-3 7,-4 9,-1 17,-5 24,-11 7,-5 13,-12 19,-20 -2,-7 -4,-14 -6,-22 -2,-8 -3,-16 -5,-22 -3,6 -5,11 -7,15 -2,3 -4,7 -5,10 -2,3 -4,6 -6,10 -1,3 -3,8 -6,13 -1,2 -3,4 -5,4 -2,1 -4,0 -6,0 -1,-1 -2,-3 -3,-4 -1,-2 -1,-4 0,-6 3,-6 6,-12 9,-18 3,-7 6,-14 9,-20 3,-7 7,-14 10,-20 3,-7 6,-13 9,-19 1,-1 3,-3 6,-5 3,-1 6,-2 10,-3 3,0 6,0 9,0 3,1 4,2 5,4 2,6 3,12 4,18 1,5 3,11 4,17 0,-1 1,-2 1,-3 1,0 1,-1 2,-2 2,-5 5,-10 7,-15 3,-4 6,-9 9,-13 3,-4 6,-7 10,-10 4,-3 9,-5 15,-6 3,-1 6,0 9,2 3,2 5,4 6,7 1,2 1,5 1,7 -1,2 -2,4 -5,4 -5,1 -10,3 -14,6 -5,4 -9,8 -13,13 -4,5 -8,10 -12,17 -4,6 -7,12 -10,19 0,3 1,6 2,10 1,3 2,7 3,10 1,3 3,5 4,8 2,2 4,3 6,3 2,0 5,-1 8,-3 3,-3 6,-7 10,-13 2,-4 5,-8 7,-12 2,-4 4,-8 6,-11 2,-3 4,-4 6,-4 1,-1 3,-1 5,0 1,1 2,2 3,4 0,2 0,4 0,7 -3,5 -6,12 -9,18 -3,7 -7,13 -11,19 -3,6 -8,11 -13,16 -5,4 -10,7 -16,9 -10,1 -17,1 -22,-3 -6,-3 -10,-8 -14,-15 -3,5 -7,9 -9,12 -3,3 -5,6 -8,8 -2,3 -5,4 -9,6 -3,1 -7,2 -12,3z"/>
  <path class="fil0" d="M108 193c1,-3 3,-4 8,-4 4,0 8,1 13,3 4,1 9,3 12,6 4,3 6,5 6,7 -2,7 -5,13 -7,19 -2,7 -4,13 -6,19 9,-6 16,-13 24,-20 7,-7 13,-15 17,-24 2,-3 4,-5 6,-6 2,-2 5,-2 6,-1 2,0 3,2 4,4 1,2 0,5 -2,9 -3,7 -7,13 -11,20 -5,6 -10,12 -15,17 -5,6 -11,11 -17,16 -6,4 -12,9 -19,14 -2,9 -4,17 -6,26 -2,8 -5,16 -8,24 -3,9 -6,16 -10,24 -4,8 -9,15 -15,22 -7,7 -14,12 -23,15 -9,3 -17,5 -25,4 -8,-1 -14,-3 -19,-8 -5,-4 -7,-11 -6,-19 1,-9 4,-18 8,-26 5,-7 10,-15 17,-21 6,-7 13,-14 21,-20 8,-6 17,-11 26,-17l3 -16c-8,6 -16,10 -24,13 -9,3 -16,3 -23,1 -7,-2 -13,-7 -18,-14 -5,-8 -9,-19 -10,-34 -1,-10 -1,-20 1,-32 3,-11 6,-23 10,-34 5,-11 10,-23 17,-33 7,-11 15,-21 23,-30 9,-8 18,-16 28,-22 10,-5 20,-9 31,-11 6,-1 11,-1 16,0 4,1 8,3 12,6 4,2 7,6 9,10 3,3 5,8 7,12 2,6 3,11 2,16 -1,5 -3,10 -5,15 -2,6 -4,11 -6,17 -1,6 -2,13 -2,21 0,3 -2,5 -5,6 -3,2 -7,2 -11,2 -4,0 -9,0 -13,-1 -4,-1 -7,-3 -10,-5 -2,-2 -4,-6 -3,-10 1,-5 2,-10 4,-15 3,-5 5,-11 9,-17 3,-5 5,-11 8,-16 1,-3 2,-6 2,-8 0,-3 -1,-4 -3,-5 -1,0 -4,0 -7,2 -4,1 -8,4 -13,8 -6,4 -11,9 -16,16 -5,6 -10,13 -15,20 -4,7 -9,15 -12,23 -4,8 -7,16 -9,24 -3,7 -4,15 -5,21 0,7 0,13 2,18 1,5 4,9 7,11 3,2 6,3 10,2 4,-1 8,-4 12,-7 4,-4 7,-9 11,-15 2,-8 4,-16 7,-22zm-41 144c3,-4 5,-9 7,-14 2,-5 3,-10 5,-15 -5,4 -10,8 -15,13 -4,4 -9,9 -13,14 -4,5 -6,9 -7,13 0,3 1,5 3,6 2,1 5,1 8,-2 4,-3 8,-7 12,-15zm122 -130c-2,2 -3,4 -5,4 -2,1 -4,1 -6,0 -2,-1 -3,-2 -4,-4 -1,-1 -1,-4 1,-6 5,-12 9,-22 12,-31 3,-9 6,-18 8,-26 -1,-3 -2,-7 -2,-11 0,-4 1,-7 3,-10 2,-5 5,-8 8,-11 4,-3 7,-5 10,-6 3,-1 6,0 7,2 2,1 2,5 0,11 0,0 0,1 0,1l0 0c-2,4 -2,8 0,11 1,2 3,5 6,7 3,1 7,3 11,4 4,2 7,3 10,5 3,2 5,4 6,7 2,3 1,7 -1,12 -1,4 -3,8 -4,14 -1,5 -2,10 -3,15 -1,5 -1,9 -1,12 0,4 1,5 3,5 2,0 5,-3 8,-8 4,-4 9,-13 15,-24 1,-2 3,-4 5,-5 2,-1 4,-1 6,0 2,0 3,2 4,4 0,3 -1,6 -3,10 -3,8 -6,14 -9,20 -3,5 -5,10 -8,14 -2,4 -5,7 -7,9 -3,3 -5,5 -8,7 -3,1 -6,3 -9,4 -4,1 -8,1 -11,1 -4,0 -8,-1 -11,-3 -3,-2 -5,-5 -7,-9 -2,-4 -3,-9 -3,-15 1,-6 2,-11 3,-17 2,-6 3,-11 5,-17 2,-5 3,-9 4,-13 0,-2 -1,-3 -2,-4 -1,-1 -2,-2 -3,-3 -1,-1 -3,-2 -4,-2 -2,-1 -3,-1 -4,-2 -3,9 -6,17 -10,24 -3,8 -7,16 -10,24zm209 -42c-3,6 -6,12 -9,19 -3,6 -7,12 -11,18 -4,5 -9,10 -14,14 -5,5 -12,7 -19,9 -6,0 -10,0 -13,-2 -3,-2 -5,-4 -7,-8 -4,5 -9,9 -15,13 -6,3 -11,5 -17,6 -6,0 -11,-2 -16,-5 -4,-4 -7,-10 -9,-19 -1,-8 -1,-17 1,-27 1,-10 4,-20 9,-30 4,-10 9,-19 15,-28 6,-8 13,-15 21,-20 3,-2 6,-3 10,-4 5,-1 9,-2 13,-1 4,0 8,1 12,3 3,2 6,4 7,8 3,1 6,2 10,3 3,2 6,3 8,5 2,1 4,3 5,4 1,1 1,2 0,3 -2,2 -4,5 -6,7 -1,3 -3,6 -4,9 -1,3 -2,7 -3,12 -1,4 -3,9 -4,14 -2,7 -3,13 -3,16 0,3 1,5 2,6 1,0 3,-1 6,-3 2,-3 5,-6 8,-11l9 -17c2,-2 3,-3 5,-4 2,-1 4,-1 6,0 1,1 2,2 3,4 1,2 1,4 0,6zm-100 29c0,7 1,11 4,12 2,1 5,0 8,-2 3,-3 6,-6 9,-11 4,-5 6,-9 7,-14 2,-8 4,-15 6,-23 2,-7 4,-14 6,-21 0,-1 0,-1 0,-1 -1,-1 -1,-1 0,-1 -1,-6 -2,-10 -4,-10 -3,-1 -5,0 -8,3 -3,3 -7,7 -10,13 -4,5 -7,11 -10,18 -2,6 -5,13 -6,20 -2,7 -3,12 -2,17zm103 -105c1,-2 3,-3 7,-3 3,0 7,0 10,2 4,2 7,4 10,6 3,3 4,5 3,7l-5 17c3,-4 6,-9 9,-13 3,-5 7,-9 11,-13 3,-4 7,-8 12,-11 4,-3 9,-5 14,-6 4,0 7,0 11,2 4,1 6,3 9,6 2,3 3,6 4,11 0,5 -1,10 -4,17 -1,3 -3,7 -5,13 -2,6 -5,11 -7,18 -2,6 -4,11 -6,17 -2,6 -2,10 -3,13 0,3 1,4 3,3 2,-1 6,-5 11,-12 3,-4 6,-8 9,-13 2,-4 4,-8 6,-11 1,-2 3,-4 5,-4 1,-1 3,-1 5,-1 1,0 3,1 4,3 1,1 1,3 1,6 -3,6 -6,13 -9,20 -3,7 -7,13 -11,19 -5,6 -10,11 -16,15 -6,4 -13,7 -20,8 -9,1 -15,0 -18,-4 -3,-4 -5,-9 -5,-15 0,-6 1,-12 3,-19 2,-6 4,-12 6,-16 2,-5 4,-9 6,-14 2,-5 4,-10 5,-14 1,-4 2,-8 3,-11 1,-4 1,-6 0,-8 -1,-1 -2,-1 -4,0 -2,1 -5,4 -9,8 -2,3 -5,7 -8,11 -3,5 -7,9 -10,14 -3,5 -6,9 -9,13 -2,4 -4,7 -5,8 -3,9 -5,18 -7,27 -1,9 -2,18 -2,26 -1,2 -3,4 -7,5 -3,1 -7,2 -10,2 -4,0 -7,0 -10,-1 -3,-1 -5,-2 -5,-4 0,-8 0,-16 2,-26 1,-10 3,-21 6,-32 3,-11 6,-22 10,-34 3,-11 7,-22 10,-32zm225 36c-2,5 -5,11 -8,18 -2,6 -6,12 -9,18 -4,6 -8,11 -14,15 -5,4 -11,7 -19,8 -6,1 -11,1 -14,-1 -4,-2 -6,-5 -8,-8 -5,5 -10,10 -16,13 -6,4 -12,5 -17,6 -6,0 -11,-2 -16,-6 -4,-3 -7,-10 -8,-19 -1,-8 -1,-17 1,-27 2,-10 4,-20 9,-30 4,-9 9,-18 15,-27 6,-9 13,-15 20,-20 2,-2 5,-3 8,-4 3,-1 6,-1 9,-2 3,0 6,0 9,1 3,0 6,1 8,2 2,-6 4,-11 5,-16 2,-6 3,-10 4,-15 1,-4 2,-8 3,-11 1,-3 1,-5 1,-7 1,-2 3,-2 5,-3 2,0 5,0 8,1 3,1 6,2 9,3 3,1 6,3 9,4 2,2 4,4 5,5 1,2 1,4 0,5 -1,2 -3,5 -5,9 -2,5 -4,10 -6,16 -3,7 -5,13 -7,20 -2,7 -4,14 -6,21 -3,7 -4,14 -6,19 -2,6 -3,11 -5,15 -2,7 -2,12 -2,16 0,3 0,5 2,5 1,1 3,0 6,-3 2,-2 5,-6 8,-10l9 -17c1,-2 3,-4 5,-5 2,0 4,0 5,1 2,0 3,1 4,3 0,2 0,4 -1,7zm-100 29c1,7 2,11 4,12 3,1 5,0 8,-2 3,-3 6,-6 9,-11 3,-5 5,-10 6,-14 2,-8 4,-15 6,-23 2,-7 5,-15 7,-23l0 -1c0,-6 -1,-9 -4,-10 -2,-1 -5,1 -8,3 -3,3 -6,8 -9,13 -4,6 -7,12 -10,18 -3,7 -5,14 -7,20 -1,7 -2,13 -2,18z"/>
 </g>
</svg>
